<svg width="23" height="22" fill="none" xmlns="http://www.w3.org/2000/svg"><path d="M22.545 2.606c.295-.286.459-.669.455-1.066A1.469 1.469 0 0 0 22.526.48c-.3-.28-.707-.44-1.132-.444a1.68 1.68 0 0 0-1.139.426L11.52 8.638 2.785.463a1.627 1.627 0 0 0-.526-.34 1.715 1.715 0 0 0-1.253-.01C.807.189.626.302.474.444a1.513 1.513 0 0 0-.353.498 1.431 1.431 0 0 0 .01 1.172c.085.185.209.352.363.492l8.736 8.175-8.736 8.175c-.154.14-.278.307-.362.492a1.434 1.434 0 0 0-.011 1.173c.081.186.201.355.353.498.152.142.333.254.532.33a1.717 1.717 0 0 0 1.253-.01c.198-.079.376-.195.526-.34l8.735-8.174 8.735 8.175c.306.276.715.429 1.14.425.424-.003.83-.163 1.13-.444.3-.28.471-.661.475-1.058.004-.398-.16-.78-.455-1.067l-8.735-8.175 8.735-8.175Z" fill="#F44058"/></svg>