<svg width="15" height="15" fill="none" xmlns="http://www.w3.org/2000/svg"><path fill-rule="evenodd" clip-rule="evenodd" d="M9.93 13.119c-.643 0-1.27-.178-1.861-.53l-.008-.006C4.938 10.06 4.938 10.06 2.418 6.939l-.012-.013c-1.03-1.777-.394-3.638.729-4.515.452-.353.953-.54 1.45-.54.571 0 1.115.242 1.571.701 1.134 1.134.966 1.912.258 2.952-.592.897-.663 1.481.464 2.6.528.529.993.882 1.54.882.422 0 .741-.213 1.05-.42.577-.39 1.01-.562 1.412-.562.492 0 .998.267 1.545.817.877.877.938 2.034.164 3.024-.607.773-1.625 1.254-2.658 1.254" fill="#F44058"/></svg>