<svg width="164" height="32" fill="none" xmlns="http://www.w3.org/2000/svg"><g clip-path="url(#a)"><mask id="b" style="mask-type:luminance" maskUnits="userSpaceOnUse" x="0" y="0" width="164" height="32"><path d="M163.435 0H0v31.044h163.435V0Z" fill="#fff"/></mask><g mask="url(#b)"><path d="m51.005 22.843-2.779-9.16-.099.02.1 1.055v8.085h-3.93V8.903h5.874l2.243 7.886.119.956h.1l.138-.956 2.223-7.886h5.874v13.94h-3.93v-8.085l.1-1.055-.1-.02-2.778 9.16h-3.155Zm16.211-1.971-.635 1.971h-4.485l5.14-13.94h4.267l5.14 13.94h-4.485l-.635-1.971h-4.307Zm.853-2.868h2.6l-1.31-4.182-1.29 4.182Zm9.863 4.84V8.902h7.84c1.454 0 2.599.378 3.433 1.135.793.744 1.19 1.806 1.19 3.187 0 1.062-.304 1.898-.913 2.509-.383.358-.8.597-1.25.717v.1a2.455 2.455 0 0 1 1.409.935c.172.213.298.458.377.737.08.266.126.485.139.657.014.16.026.419.04.777l.04 1.135c.026.85.192 1.534.496 2.051h-4.426a3.196 3.196 0 0 1-.337-.617 2.858 2.858 0 0 1-.12-.498c0-.12-.006-.319-.02-.597l-.04-.837c0-.942-.164-1.56-.495-1.852-.291-.279-.8-.418-1.529-.418H82.26v4.82h-4.327Zm4.327-10.556v2.749h2.44c.503 0 .887-.113 1.151-.339.292-.239.437-.597.437-1.075 0-.412-.126-.737-.377-.976-.264-.239-.675-.358-1.23-.358h-2.421Z" fill="#F44058"/><path d="m104.674 20.812 1.707 1.693-1.845 1.912-1.866-1.952c-.979.505-2.123.757-3.433.757-1.072 0-2.044-.12-2.917-.359-.86-.226-1.654-.703-2.382-1.434-1.217-1.221-1.826-2.96-1.826-5.217 0-2.51.649-4.415 1.945-5.716 1.27-1.314 3.13-1.971 5.577-1.971 2.394 0 4.187.657 5.378 1.971 1.137 1.222 1.707 2.881 1.707 4.979 0 2.19-.682 3.97-2.045 5.337Zm-4.068-4.102 1.25 1.274a9.366 9.366 0 0 0 .259-2.23c0-1.248-.219-2.19-.655-2.828-.463-.637-1.125-.956-1.985-.956-.807 0-1.436.292-1.885.876-.582.744-.874 1.8-.874 3.167 0 1.473.325 2.535.973 3.186.437.438 1.045.657 1.826.657.357 0 .654-.086.893-.259l-1.33-1.414 1.528-1.473Zm21.263-7.807v8.723c0 .836-.086 1.566-.258 2.19-.159.611-.523 1.202-1.092 1.773-1.084 1.088-2.771 1.633-5.06 1.633-2.316 0-4.016-.545-5.1-1.633-.543-.545-.907-1.135-1.092-1.773-.172-.637-.258-1.374-.258-2.21V8.903h4.346v8.524c0 .796.179 1.38.536 1.752.344.359.86.538 1.548.538.688 0 1.204-.18 1.548-.538.357-.372.536-.956.536-1.752V8.903h4.346Zm7.509 5.258h6.172v3.285h-6.172v1.713h7.363v3.684h-11.69V8.903h11.531v3.684h-7.204v1.574Zm8.648 4.082h4.346c-.053.61.105 1.115.476 1.514.344.371.906.557 1.687.557.529 0 .939-.1 1.23-.299.344-.252.516-.584.516-.995 0-.425-.172-.757-.516-.996-.291-.2-.833-.385-1.627-.558l-1.389-.279c-1.575-.318-2.719-.81-3.434-1.473-.714-.637-1.071-1.514-1.071-2.629 0-1.407.542-2.529 1.627-3.365 1.019-.784 2.441-1.175 4.267-1.175 1.971 0 3.413.398 4.326 1.194.9.797 1.376 1.846 1.429 3.147h-4.088c0-.412-.106-.73-.318-.956-.291-.292-.74-.438-1.349-.438-.53 0-.926.08-1.191.239-.317.2-.476.471-.476.816a.88.88 0 0 0 .278.678l.119.119c.04.027.086.053.139.08.066.026.125.053.178.08a6.877 6.877 0 0 0 .417.12c.053.012.132.032.238.059l.278.06c.066.013.165.04.298.079.145.027.258.046.337.06l1.35.298c1.521.346 2.599.837 3.235 1.474.714.717 1.071 1.62 1.071 2.709 0 .623-.126 1.247-.377 1.872-.238.61-.549 1.115-.933 1.513-.992 1.022-2.626 1.534-4.902 1.534-2.236 0-3.856-.525-4.862-1.574-.37-.385-.681-.883-.932-1.493a5.652 5.652 0 0 1-.377-1.972Zm16.9-5.516h-3.93V8.903h12.186v3.824h-3.93v10.116h-4.326V12.727Z" fill="#808190"/><mask id="c" style="mask-type:luminance" maskUnits="userSpaceOnUse" x="0" y="0" width="31" height="32"><path d="M30.936 0H0v31.044h30.936V0Z" fill="#fff"/></mask><g mask="url(#c)"><path d="M15.468 2.235c-7.302 0-13.24 5.96-13.24 13.287 0 7.327 5.938 13.286 13.24 13.286 7.302 0 13.24-5.96 13.24-13.286 0-7.327-5.938-13.287-13.24-13.287Zm0 23.916c-5.84 0-10.592-4.769-10.592-10.63 0-5.86 4.752-10.629 10.592-10.629 5.84 0 10.593 4.77 10.593 10.63 0 5.86-4.753 10.629-10.593 10.629Z" fill="#808190"/><path d="M12.82 12.864 8.844 22.17l9.272-3.99 3.976-9.304-9.272 3.99Zm2.648 3.99a1.328 1.328 0 0 1-1.328-1.332 1.328 1.328 0 1 1 2.656 0c0 .737-.593 1.332-1.328 1.332Z" fill="#F44058"/><path d="m2.008 30.994-.832-2.742-.03.006.03.316v2.42H0v-4.172h1.758l.671 2.36.036.286h.03l.041-.286.665-2.36H4.96v4.172H3.784v-2.42l.03-.316-.03-.006-.832 2.742h-.944Z" fill="#808190"/><path d="m30.24 3.678.512.506-.553.572-.558-.584a2.214 2.214 0 0 1-1.028.227c-.32 0-.611-.036-.873-.108a1.566 1.566 0 0 1-.713-.429c-.364-.365-.546-.886-.546-1.561 0-.751.194-1.322.582-1.71C27.443.196 28 0 28.733 0c.716 0 1.252.197 1.609.59.34.366.51.862.51 1.49 0 .656-.204 1.188-.611 1.598ZM29.024 2.45l.374.381c.052-.21.078-.433.078-.667 0-.374-.066-.656-.196-.847-.139-.19-.337-.286-.594-.286a.672.672 0 0 0-.565.262c-.174.223-.261.539-.261.948 0 .441.097.759.291.954.13.13.313.196.547.196a.444.444 0 0 0 .267-.077l-.398-.423.457-.441Z" fill="#F44058"/></g></g></g><defs><clipPath id="a"><path fill="#fff" d="M0 0h163.435v31.044H0z"/></clipPath></defs></svg>