<svg width="124" height="31" fill="none" xmlns="http://www.w3.org/2000/svg"><path d="M21.924 21.008V6.378h2.172v2.286h.19c.305-.781.797-1.387 1.477-1.82.68-.437 1.495-.656 2.448-.656.965 0 1.768.219 2.41.657.647.432 1.152 1.038 1.514 1.819h.152a4.262 4.262 0 0 1 1.686-1.8c.75-.45 1.648-.676 2.696-.676 1.308 0 2.377.41 3.21 1.228.831.813 1.247 2.08 1.247 3.8v9.792h-2.248v-9.791c0-1.08-.295-1.851-.886-2.315-.59-.463-1.285-.695-2.085-.695-1.03 0-1.826.311-2.391.933-.565.616-.848 1.397-.848 2.343v9.525h-2.286v-10.02c0-.832-.27-1.502-.81-2.01-.539-.514-1.234-.771-2.085-.771-.584 0-1.13.155-1.638.467a3.524 3.524 0 0 0-1.22 1.295c-.304.546-.457 1.178-.457 1.895v9.144h-2.248Zm24.935.343c-.927 0-1.769-.175-2.524-.524a4.331 4.331 0 0 1-1.8-1.534c-.445-.673-.667-1.485-.667-2.438 0-.838.165-1.518.495-2.038.33-.527.772-.94 1.324-1.238a6.954 6.954 0 0 1 1.829-.667c.673-.152 1.35-.273 2.029-.362.889-.114 1.61-.2 2.162-.257.558-.064.965-.168 1.219-.314.26-.146.39-.4.39-.762v-.077c0-.94-.257-1.67-.771-2.19-.508-.52-1.28-.781-2.315-.781-1.073 0-1.914.235-2.524.705-.61.47-1.038.971-1.286 1.504l-2.133-.762c.381-.888.889-1.58 1.524-2.076a5.711 5.711 0 0 1 2.095-1.048 8.7 8.7 0 0 1 2.248-.304c.47 0 1.01.057 1.62.171a5.18 5.18 0 0 1 1.78.676c.578.343 1.058.86 1.438 1.553.382.692.572 1.619.572 2.781v9.639h-2.248v-1.981h-.114c-.152.317-.406.657-.762 1.019-.356.362-.829.67-1.42.924-.59.254-1.31.38-2.161.38Zm.343-2.02c.889 0 1.638-.174 2.247-.523.616-.35 1.08-.8 1.391-1.353a3.447 3.447 0 0 0 .476-1.743v-2.057c-.095.114-.305.219-.628.314-.318.09-.686.168-1.105.238-.413.064-.816.12-1.21.172-.387.044-.701.082-.943.114-.584.076-1.13.2-1.638.371-.502.166-.908.416-1.22.753-.304.33-.456.78-.456 1.352 0 .781.289 1.372.866 1.772.585.394 1.324.59 2.22.59Zm7.783 1.677V6.378h2.171v2.21h.153c.266-.724.749-1.311 1.447-1.762.699-.451 1.486-.676 2.362-.676.165 0 .372.003.62.01.247.005.434.015.561.028v2.286a6.673 6.673 0 0 0-.523-.086 5.156 5.156 0 0 0-.848-.067c-.711 0-1.346.15-1.905.448-.552.292-.99.698-1.314 1.219-.318.514-.477 1.102-.477 1.762v9.258h-2.247Zm16.833 5.486V18.76h-.19c-.165.267-.4.603-.705 1.01-.305.4-.74.758-1.305 1.076-.565.311-1.317.467-2.257.467-1.22 0-2.296-.308-3.229-.924-.933-.623-1.664-1.499-2.19-2.63-.528-1.136-.791-2.479-.791-4.028 0-1.537.263-2.87.79-4s1.26-2.004 2.2-2.62c.94-.615 2.026-.923 3.258-.923.952 0 1.705.158 2.257.476.559.311.984.667 1.276 1.067.299.393.53.717.696.971h.266V6.378h2.172v20.116h-2.248Zm-4.152-7.2c.901 0 1.663-.236 2.285-.705.623-.477 1.096-1.134 1.42-1.972.323-.845.485-1.82.485-2.924 0-1.092-.158-2.048-.476-2.867-.317-.825-.787-1.467-1.41-1.924-.622-.463-1.39-.695-2.304-.695-.953 0-1.747.244-2.382.733-.628.483-1.101 1.14-1.419 1.972-.31.825-.466 1.752-.466 2.781 0 1.041.158 1.987.476 2.838.324.845.8 1.518 1.428 2.02.635.495 1.423.742 2.363.742Zm17.052-4.268V6.378h2.248v14.63h-2.248V18.53h-.152c-.343.743-.876 1.375-1.6 1.896-.724.514-1.638.771-2.743.771-.915 0-1.727-.2-2.439-.6-.71-.406-1.27-1.016-1.676-1.828-.406-.82-.61-1.851-.61-3.096V6.378h2.248v9.144c0 1.066.299 1.917.896 2.552.603.635 1.371.953 2.305.953.558 0 1.127-.143 1.704-.429.585-.286 1.074-.724 1.467-1.314.4-.59.6-1.343.6-2.258Zm9.817 6.287c-1.41 0-2.626-.311-3.648-.934-1.016-.628-1.8-1.505-2.353-2.629-.546-1.13-.819-2.444-.819-3.943 0-1.498.273-2.819.82-3.962.552-1.15 1.32-2.045 2.304-2.686.99-.648 2.146-.971 3.467-.971.762 0 1.514.127 2.258.38.742.255 1.419.667 2.028 1.239.61.565 1.096 1.314 1.457 2.248.362.933.543 2.082.543 3.447v.953H89.315v-1.943h8.991c0-.825-.165-1.562-.495-2.21a3.733 3.733 0 0 0-1.39-1.533c-.597-.375-1.302-.562-2.115-.562-.895 0-1.67.222-2.324.667a4.385 4.385 0 0 0-1.495 1.714 5.037 5.037 0 0 0-.524 2.267v1.295c0 1.105.19 2.042.571 2.81.388.762.924 1.343 1.61 1.743.686.394 1.483.59 2.39.59.591 0 1.125-.082 1.6-.247a3.428 3.428 0 0 0 1.249-.762c.349-.343.619-.768.81-1.276l2.171.61a4.821 4.821 0 0 1-1.153 1.942c-.54.553-1.206.984-2 1.295-.794.305-1.686.458-2.676.458Zm17.157-11.658-2.019.571a3.741 3.741 0 0 0-.562-.981 2.723 2.723 0 0 0-.99-.8c-.42-.21-.956-.314-1.61-.314-.895 0-1.642.206-2.238.619-.591.406-.886.924-.886 1.552 0 .559.203 1 .609 1.324.407.324 1.042.594 1.905.81l2.172.533c1.308.318 2.283.803 2.924 1.457.641.648.962 1.483.962 2.505 0 .838-.241 1.588-.724 2.248-.476.66-1.143 1.181-2 1.562s-1.854.572-2.991.572c-1.492 0-2.727-.324-3.705-.972-.978-.648-1.597-1.594-1.857-2.838l2.133-.534c.204.788.588 1.378 1.153 1.772.571.394 1.317.59 2.238.59 1.048 0 1.88-.222 2.496-.666.622-.451.933-.99.933-1.62 0-.507-.178-.933-.533-1.276-.356-.349-.902-.61-1.639-.78l-2.438-.572c-1.34-.318-2.324-.81-2.953-1.476-.622-.674-.933-1.515-.933-2.525 0-.825.232-1.555.695-2.19.47-.635 1.108-1.134 1.915-1.495.813-.362 1.733-.543 2.762-.543 1.448 0 2.584.317 3.41.952.831.635 1.422 1.473 1.771 2.515Zm7.331-3.277v1.905h-7.582V6.378h7.582Zm-5.372-3.505h2.248v13.944c0 .635.092 1.111.276 1.429.19.31.432.52.724.628.298.102.613.153.943.153.247 0 .451-.013.609-.038l.381-.077.457 2.02a4.556 4.556 0 0 1-.638.171 4.697 4.697 0 0 1-1.038.095 4.526 4.526 0 0 1-1.867-.41 3.71 3.71 0 0 1-1.505-1.247c-.393-.559-.59-1.264-.59-2.114V2.873Z" fill="url(#a)"/><path d="m5.99 19.591.106-4.448-3.8 2.324-.705-1.238 3.924-2.124-3.924-2.124.704-1.238 3.8 2.324-.104-4.448H7.42l-.105 4.448 3.8-2.324.705 1.238-3.924 2.124 3.924 2.124-.705 1.238-3.8-2.324.105 4.448H5.99Z" fill="#E05365"/><defs><linearGradient id="a" x1="92.258" y1=".008" x2="125.878" y2="31.324" gradientUnits="userSpaceOnUse"><stop stop-color="#fff"/><stop offset="1" stop-color="#BABABA"/></linearGradient></defs></svg>