<svg width="183" height="183" fill="none" xmlns="http://www.w3.org/2000/svg"><rect x=".5" y=".5" width="182" height="182" rx="19.5" fill="url(#a)" stroke="#343434"/><g clip-path="url(#b)"><mask id="c" style="mask-type:luminance" maskUnits="userSpaceOnUse" x="31" y="81" width="120" height="23"><path d="M151 81H31v22.793h120V81Z" fill="#fff"/></mask><g mask="url(#c)"><path d="m68.45 97.773-2.04-6.727-.073.015.072.775v5.937h-2.885V87.537h4.313l1.647 5.79.087.702h.073l.102-.701 1.632-5.79h4.313v10.235h-2.885v-5.937l.073-.775-.073-.015-2.04 6.727H68.45Zm11.903-1.448-.467 1.448h-3.293l3.774-10.236H83.5l3.774 10.236h-3.293l-.466-1.448h-3.162Zm.626-2.106h1.91l-.963-3.07-.947 3.07Zm7.242 3.554V87.537h5.755c1.069 0 1.91.278 2.521.834.583.546.874 1.325.874 2.34 0 .779-.223 1.393-.67 1.841a2.145 2.145 0 0 1-.918.527v.073c.428.107.772.336 1.035.687.126.156.218.337.277.541.058.195.092.356.102.483.01.117.019.307.029.57l.029.833c.02.624.141 1.126.364 1.507h-3.25a2.351 2.351 0 0 1-.247-.454 2.11 2.11 0 0 1-.087-.365c0-.088-.005-.234-.015-.439l-.03-.614c0-.692-.12-1.145-.363-1.36-.214-.205-.588-.307-1.123-.307h-1.107v3.539h-3.176Zm3.176-7.75v2.018h1.793c.369 0 .65-.083.845-.249.214-.175.32-.439.32-.79 0-.302-.092-.54-.277-.716-.194-.175-.495-.263-.903-.263h-1.778Z" fill="#F44058"/><path d="m107.856 96.28 1.253 1.243-1.355 1.404-1.37-1.433c-.719.37-1.559.556-2.521.556-.786 0-1.5-.088-2.142-.263-.631-.166-1.214-.517-1.748-1.053-.894-.897-1.34-2.174-1.34-3.831 0-1.843.475-3.241 1.427-4.197.933-.965 2.298-1.447 4.095-1.447 1.758 0 3.074.482 3.949 1.447.835.897 1.253 2.116 1.253 3.656 0 1.608-.501 2.915-1.501 3.919Zm-2.987-3.011.918.935a6.892 6.892 0 0 0 .189-1.637c0-.917-.16-1.609-.481-2.077-.339-.468-.825-.702-1.457-.702-.592 0-1.054.215-1.384.644-.427.546-.641 1.32-.641 2.325 0 1.082.238 1.862.714 2.34.321.32.767.482 1.341.482.262 0 .48-.064.655-.19l-.976-1.038 1.122-1.082Zm15.612-5.732v6.404c0 .614-.064 1.15-.19 1.608-.116.449-.383.883-.801 1.302-.797.8-2.035 1.199-3.716 1.199-1.7 0-2.948-.4-3.745-1.2-.398-.399-.665-.833-.801-1.3a6.266 6.266 0 0 1-.19-1.623v-6.39h3.192v6.258c0 .585.131 1.014.393 1.287.253.263.631.394 1.136.394.506 0 .884-.131 1.137-.394.262-.273.394-.702.394-1.287v-6.258h3.191Zm5.513 3.86h4.532v2.412h-4.532v1.258h5.406v2.705h-8.583V87.537h8.466v2.705h-5.289v1.155Zm6.35 2.997h3.191c-.039.449.077.82.349 1.112.253.273.666.41 1.239.41.388 0 .69-.074.904-.22a.866.866 0 0 0 .378-.731.842.842 0 0 0-.378-.731c-.214-.147-.613-.283-1.195-.41l-1.02-.205c-1.157-.234-1.997-.594-2.521-1.082-.525-.468-.787-1.11-.787-1.93 0-1.033.398-1.857 1.195-2.47.748-.576 1.792-.864 3.133-.864 1.447 0 2.506.293 3.176.878.661.585 1.01 1.355 1.049 2.31h-3.001c0-.302-.078-.536-.234-.702-.213-.214-.544-.322-.99-.322-.389 0-.681.059-.875.176-.233.146-.35.346-.35.6 0 .204.068.37.205.497l.087.087c.029.02.063.04.102.059.049.02.092.039.131.058a5.355 5.355 0 0 0 .306.088l.175.044c.087.02.155.034.204.044.048.01.121.029.219.058.106.02.189.034.247.044l.991.22c1.117.253 1.909.614 2.375 1.081.525.527.787 1.19.787 1.99 0 .457-.092.915-.277 1.374a3.312 3.312 0 0 1-.685 1.11c-.728.752-1.928 1.127-3.599 1.127-1.642 0-2.832-.385-3.57-1.155-.272-.283-.5-.649-.685-1.097a4.172 4.172 0 0 1-.276-1.448Zm12.409-4.05h-2.886v-2.807h8.947v2.807h-2.885v7.428h-3.176v-7.428Z" fill="#808190"/><mask id="d" style="mask-type:luminance" maskUnits="userSpaceOnUse" x="31" y="80" width="23" height="24"><path d="M53.714 80.999H31v22.793h22.714V80.999Z" fill="#fff"/></mask><g mask="url(#d)"><path d="M42.357 82.64c-5.36 0-9.721 4.376-9.721 9.756s4.36 9.756 9.721 9.756c5.362 0 9.722-4.376 9.722-9.756s-4.36-9.755-9.722-9.755Zm0 17.561c-4.288 0-7.777-3.502-7.777-7.805s3.49-7.804 7.777-7.804c4.288 0 7.778 3.501 7.778 7.804 0 4.303-3.49 7.805-7.778 7.805Z" fill="#808190"/><path d="m40.413 90.445-2.919 6.831 6.808-2.929 2.919-6.831-6.808 2.929Zm1.945 2.93a.975.975 0 0 1-.975-.979.975.975 0 1 1 1.95 0 .975.975 0 0 1-.975.978Z" fill="#F44058"/><path d="m32.474 103.756-.61-2.013-.022.004.021.232v1.777H31v-3.064h1.29l.494 1.733.026.21h.022l.03-.21.489-1.733h1.29v3.064h-.863v-1.777l.022-.232-.022-.004-.61 2.013h-.694Z" fill="#808190"/><path d="m53.204 83.7.375.371-.406.42-.41-.429c-.215.111-.466.167-.754.167-.236 0-.45-.026-.641-.079a1.15 1.15 0 0 1-.523-.315c-.268-.268-.402-.65-.402-1.147 0-.551.143-.97.428-1.256.279-.289.687-.433 1.225-.433.526 0 .92.144 1.182.433.25.269.375.633.375 1.094 0 .482-.15.873-.449 1.173Zm-.894-.902.275.28c.037-.155.056-.318.056-.49 0-.275-.047-.482-.143-.622a.507.507 0 0 0-.437-.21.493.493 0 0 0-.414.193c-.128.163-.192.395-.192.695 0 .324.071.558.214.7.096.097.23.145.401.145a.326.326 0 0 0 .196-.057l-.292-.31.336-.324Z" fill="#F44058"/></g></g></g><defs><radialGradient id="a" cx="0" cy="0" r="1" gradientUnits="userSpaceOnUse" gradientTransform="rotate(35.486 -98.263 188.2) scale(194.657)"><stop stop-color="#0A0A0A"/><stop offset="1" stop-color="#1A1A1A"/></radialGradient><clipPath id="b"><path fill="#fff" transform="translate(31 81)" d="M0 0h120v22.793H0z"/></clipPath></defs></svg>